<mxfile host="app.diagrams.net" agent="Mozilla/5.0 (Windows NT 10.0; Win64; x64) AppleWebKit/537.36 (KHTML, like Gecko) Chrome/138.0.0.0 YaBrowser/25.8.0.0 Safari/537.36" version="28.2.5">
  <diagram name="Страница — 1" id="XUgMvv5jfBpqzGYpp3AZ">
    <mxGraphModel dx="784" dy="582" grid="1" gridSize="10" guides="1" tooltips="1" connect="1" arrows="1" fold="1" page="1" pageScale="1" pageWidth="827" pageHeight="1169" math="0" shadow="0">
      <root>
        <mxCell id="0" />
        <mxCell id="1" parent="0" />
        <mxCell id="DnT4BuIipQ7DQi0__Xu1-1" value="НАЧАЛО" style="ellipse;whiteSpace=wrap;html=1;fillColor=#FF66FF;" parent="1" vertex="1">
          <mxGeometry x="350" y="10" width="100" height="60" as="geometry" />
        </mxCell>
        <mxCell id="DnT4BuIipQ7DQi0__Xu1-9" value="КОНЕЦ" style="ellipse;whiteSpace=wrap;html=1;fillColor=#FF66FF;" parent="1" vertex="1">
          <mxGeometry x="350" y="460" width="100" height="60" as="geometry" />
        </mxCell>
        <mxCell id="Tdh85_WrlPqZjJfFEi2J-1" value="" style="shape=flexArrow;endArrow=classic;html=1;rounded=0;" edge="1" parent="1">
          <mxGeometry width="50" height="50" relative="1" as="geometry">
            <mxPoint x="399.5" y="70" as="sourcePoint" />
            <mxPoint x="399.5" y="110" as="targetPoint" />
          </mxGeometry>
        </mxCell>
        <mxCell id="Tdh85_WrlPqZjJfFEi2J-2" value="x, s" style="shape=parallelogram;perimeter=parallelogramPerimeter;whiteSpace=wrap;html=1;fixedSize=1;" vertex="1" parent="1">
          <mxGeometry x="350" y="110" width="100" height="30" as="geometry" />
        </mxCell>
        <mxCell id="Tdh85_WrlPqZjJfFEi2J-3" value="" style="shape=flexArrow;endArrow=classic;html=1;rounded=0;" edge="1" parent="1">
          <mxGeometry width="50" height="50" relative="1" as="geometry">
            <mxPoint x="399.5" y="140" as="sourcePoint" />
            <mxPoint x="399.5" y="180" as="targetPoint" />
          </mxGeometry>
        </mxCell>
        <mxCell id="Tdh85_WrlPqZjJfFEi2J-4" value="s = 0" style="rounded=0;whiteSpace=wrap;html=1;" vertex="1" parent="1">
          <mxGeometry x="355" y="180" width="90" height="30" as="geometry" />
        </mxCell>
        <mxCell id="Tdh85_WrlPqZjJfFEi2J-6" value="i &amp;lt;= x" style="rhombus;whiteSpace=wrap;html=1;" vertex="1" parent="1">
          <mxGeometry x="360" y="280" width="80" height="40" as="geometry" />
        </mxCell>
        <mxCell id="Tdh85_WrlPqZjJfFEi2J-7" value="i = 1" style="rounded=0;whiteSpace=wrap;html=1;" vertex="1" parent="1">
          <mxGeometry x="355" y="210" width="90" height="30" as="geometry" />
        </mxCell>
        <mxCell id="Tdh85_WrlPqZjJfFEi2J-8" value="" style="endArrow=classic;html=1;rounded=0;exitX=0.5;exitY=1;exitDx=0;exitDy=0;entryX=0.5;entryY=0;entryDx=0;entryDy=0;" edge="1" parent="1" source="Tdh85_WrlPqZjJfFEi2J-7" target="Tdh85_WrlPqZjJfFEi2J-6">
          <mxGeometry width="50" height="50" relative="1" as="geometry">
            <mxPoint x="380" y="330" as="sourcePoint" />
            <mxPoint x="430" y="280" as="targetPoint" />
          </mxGeometry>
        </mxCell>
        <mxCell id="Tdh85_WrlPqZjJfFEi2J-9" value="" style="endArrow=classic;html=1;rounded=0;exitX=0.5;exitY=1;exitDx=0;exitDy=0;" edge="1" parent="1" source="Tdh85_WrlPqZjJfFEi2J-6">
          <mxGeometry width="50" height="50" relative="1" as="geometry">
            <mxPoint x="380" y="330" as="sourcePoint" />
            <mxPoint x="400" y="360" as="targetPoint" />
          </mxGeometry>
        </mxCell>
        <mxCell id="Tdh85_WrlPqZjJfFEi2J-10" value="s += sin(i)" style="rounded=0;whiteSpace=wrap;html=1;" vertex="1" parent="1">
          <mxGeometry x="355" y="360" width="90" height="30" as="geometry" />
        </mxCell>
        <mxCell id="Tdh85_WrlPqZjJfFEi2J-11" value="" style="endArrow=none;html=1;rounded=0;exitX=0.5;exitY=1;exitDx=0;exitDy=0;entryX=0.5;entryY=1;entryDx=0;entryDy=0;" edge="1" parent="1" source="Tdh85_WrlPqZjJfFEi2J-10" target="Tdh85_WrlPqZjJfFEi2J-12">
          <mxGeometry width="50" height="50" relative="1" as="geometry">
            <mxPoint x="380" y="330" as="sourcePoint" />
            <mxPoint x="520" y="360" as="targetPoint" />
            <Array as="points">
              <mxPoint x="400" y="410" />
              <mxPoint x="460" y="410" />
              <mxPoint x="520" y="410" />
            </Array>
          </mxGeometry>
        </mxCell>
        <mxCell id="Tdh85_WrlPqZjJfFEi2J-12" value="i += 0.1" style="rounded=0;whiteSpace=wrap;html=1;" vertex="1" parent="1">
          <mxGeometry x="480" y="310" width="80" height="30" as="geometry" />
        </mxCell>
        <mxCell id="Tdh85_WrlPqZjJfFEi2J-13" value="" style="endArrow=classic;html=1;rounded=0;exitX=0.5;exitY=0;exitDx=0;exitDy=0;" edge="1" parent="1" source="Tdh85_WrlPqZjJfFEi2J-12">
          <mxGeometry width="50" height="50" relative="1" as="geometry">
            <mxPoint x="380" y="330" as="sourcePoint" />
            <mxPoint x="400" y="260" as="targetPoint" />
            <Array as="points">
              <mxPoint x="520" y="260" />
            </Array>
          </mxGeometry>
        </mxCell>
        <mxCell id="Tdh85_WrlPqZjJfFEi2J-14" value="" style="endArrow=classic;html=1;rounded=0;exitX=0;exitY=0.5;exitDx=0;exitDy=0;entryX=0.5;entryY=0;entryDx=0;entryDy=0;" edge="1" parent="1" source="Tdh85_WrlPqZjJfFEi2J-6" target="Tdh85_WrlPqZjJfFEi2J-16">
          <mxGeometry width="50" height="50" relative="1" as="geometry">
            <mxPoint x="380" y="330" as="sourcePoint" />
            <mxPoint x="260" y="330" as="targetPoint" />
            <Array as="points">
              <mxPoint x="280" y="300" />
            </Array>
          </mxGeometry>
        </mxCell>
        <mxCell id="Tdh85_WrlPqZjJfFEi2J-16" value="s" style="shape=parallelogram;perimeter=parallelogramPerimeter;whiteSpace=wrap;html=1;fixedSize=1;" vertex="1" parent="1">
          <mxGeometry x="235" y="350" width="90" height="30" as="geometry" />
        </mxCell>
        <mxCell id="Tdh85_WrlPqZjJfFEi2J-17" value="" style="endArrow=classic;html=1;rounded=0;exitX=0.5;exitY=1;exitDx=0;exitDy=0;" edge="1" parent="1" source="Tdh85_WrlPqZjJfFEi2J-16">
          <mxGeometry width="50" height="50" relative="1" as="geometry">
            <mxPoint x="380" y="330" as="sourcePoint" />
            <mxPoint x="400" y="460" as="targetPoint" />
            <Array as="points">
              <mxPoint x="280" y="430" />
              <mxPoint x="400" y="430" />
            </Array>
          </mxGeometry>
        </mxCell>
        <mxCell id="Tdh85_WrlPqZjJfFEi2J-18" value="ДА" style="text;html=1;align=center;verticalAlign=middle;whiteSpace=wrap;rounded=0;" vertex="1" parent="1">
          <mxGeometry x="370" y="320" width="60" height="30" as="geometry" />
        </mxCell>
        <mxCell id="Tdh85_WrlPqZjJfFEi2J-19" value="НЕТ" style="text;html=1;align=center;verticalAlign=middle;whiteSpace=wrap;rounded=0;" vertex="1" parent="1">
          <mxGeometry x="295" y="270" width="60" height="30" as="geometry" />
        </mxCell>
      </root>
    </mxGraphModel>
  </diagram>
</mxfile>
